# xmcd
#
# Track frame offsets: 
#        150
#        13118
#        23358
#        33475
#        43844
#        54234
#        66236
#        78183
#        90605
#        102097
#        111925
#        123021
#        132483
#        142880
#        154463
#        165456
#        175517
#        186996
#        195761
#        206331
#        215679
#        225507
#        235737
#        246745
#        256529
#        267595
#        279004
#        289797
#        302788
#        314208
#        323700
#        333618
#        344342
#
# Disc length: 4740 seconds
#
# Revision: 0
# Processed by: cddbd v1.5.2PL0 Copyright (c) Steve Scherf et al.
# Submitted via: ExactAudioCopyFreeDBPlugin 1.0
#
DISCID=d1128221
DTITLE=George Jones - Birth Of A Legend 1954-1961 [CD3]
DYEAR=2017
DGENRE=Country
TTITLE0=You're Back Again
TTITLE1=Don't Stop The Music
TTITLE2=(That's) All I Want To Do
TTITLE3=Uh, Uh, No
TTITLE4=Uh, Uh, No (alt)
TTITLE5=Cup Of Loneliness
TTITLE6=Cup Of Loneliness (alt)
TTITLE7=Please Take The Devil Out Of Me
TTITLE8=Giveaway Girl
TTITLE9=Too Much Water
TTITLE10=Flame In My Heart (& Virginia Spurlock)
TTITLE11=No, No, Never
TTITLE12=Don't Do This To Me
TTITLE13=Hearts In My Dreams
TTITLE14=Tall Tall Trees
TTITLE15=No Use To Cry
TTITLE16=One Is A Lonely Number
TTITLE17=That's The Way I Feel
TTITLE18=Frozen Heart
TTITLE19=Never Been So Weary
TTITLE20=Maybe Next Christmas
TTITLE21=New Baby For Christmas
TTITLE22=Wandering Soul
TTITLE23=If You Want To Wear A Crown
TTITLE24=(I) Gotta Talk To Your Heart
TTITLE25=Nothing Can Stop Me
TTITLE26=I Always Wind Up Losing
TTITLE27=Color Of The Blues
TTITLE28=Eskimo Pie
TTITLE29=Maybe Little Baby
TTITLE30=Rain Rain (Rain Keeps Fallin')
TTITLE31=(I Believe) The Good Old Bible
TTITLE32=We'll Understand It (Farther Along)
EXTD=
EXTT0=
EXTT1=
EXTT2=
EXTT3=
EXTT4=
EXTT5=
EXTT6=
EXTT7=
EXTT8=
EXTT9=
EXTT10=
EXTT11=
EXTT12=
EXTT13=
EXTT14=
EXTT15=
EXTT16=
EXTT17=
EXTT18=
EXTT19=
EXTT20=
EXTT21=
EXTT22=
EXTT23=
EXTT24=
EXTT25=
EXTT26=
EXTT27=
EXTT28=
EXTT29=
EXTT30=
EXTT31=
EXTT32=
PLAYORDER=
